<?xml version="1.0" encoding="UTF-8" standalone="no"?>
<svg
   xmlns:dc="http://purl.org/dc/elements/1.1/"
   xmlns:cc="http://creativecommons.org/ns#"
   xmlns:rdf="http://www.w3.org/1999/02/22-rdf-syntax-ns#"
   xmlns:svg="http://www.w3.org/2000/svg"
   xmlns="http://www.w3.org/2000/svg"
   xmlns:sodipodi="http://sodipodi.sourceforge.net/DTD/sodipodi-0.dtd"
   xmlns:inkscape="http://www.inkscape.org/namespaces/inkscape"
   width="1000"
   height="1000"
   id="svg2"
   version="1.1"
   inkscape:version="1.0 (6e3e5246a0, 2020-05-07)"
   sodipodi:docname="logo-o.svg"
   inkscape:export-filename="/home/luiz/Dropbox/projetos/luizcarvalho.github.io/_arts/marca-dagua-square-150.png"
   inkscape:export-xdpi="14.4"
   inkscape:export-ydpi="14.4">
  <defs
     id="defs4" />
  <sodipodi:namedview
     id="base"
     pagecolor="#ffffff"
     bordercolor="#666666"
     borderopacity="1.0"
     inkscape:pageopacity="0.0"
     inkscape:pageshadow="2"
     inkscape:zoom="0.7"
     inkscape:cx="499.83673"
     inkscape:cy="838.51238"
     inkscape:document-units="px"
     inkscape:current-layer="layer1"
     showgrid="false"
     inkscape:window-width="1848"
     inkscape:window-height="1016"
     inkscape:window-x="1992"
     inkscape:window-y="27"
     inkscape:window-maximized="1"
     inkscape:document-rotation="0"
     showguides="false"
     fit-margin-top="0"
     fit-margin-left="0"
     fit-margin-right="0"
     fit-margin-bottom="0" />
  <metadata
     id="metadata7">
    <rdf:RDF>
      <cc:Work
         rdf:about="">
        <dc:format>image/svg+xml</dc:format>
        <dc:type
           rdf:resource="http://purl.org/dc/dcmitype/StillImage" />
        <dc:title></dc:title>
      </cc:Work>
    </rdf:RDF>
  </metadata>
  <g
     inkscape:label="Layer 1"
     inkscape:groupmode="layer"
     id="layer1"
     transform="translate(-34.285834,-573.42192)">
    <g
       id="g1006"
       transform="matrix(2.2204012,0,0,2.2204012,-635.57806,-60.776728)"
       inkscape:export-xdpi="264"
       inkscape:export-ydpi="264">
      <path
         d="m 675.15342,632.20265 c -5.43208,6.61296 -11.09918,18.34396 -17.55469,35.97852 -4.01501,11.02159 -6.29882,19.76008 -6.29882,24.32617 0,3.3852 0.70958,6.37606 1.65429,7.00586 0.70853,0.47236 1.88883,1.73212 2.125,2.2832 0.31491,0.70853 1.49505,1.33865 2.91211,1.4961 -0.0787,-0.39363 -0.0781,-0.47252 -0.0781,-2.28321 0,-6.61296 2.36089,-16.84769 6.76953,-29.1289 5.19589,-14.4068 11.10159,-25.03354 19.28906,-34.7168 -0.86598,-1.33834 -6.29914,-4.48859 -8.81836,-4.96094 z m 21.2832,0 c -7.16404,8.18747 -14.32889,20.23367 -18.58007,31.33399 -4.80227,12.35993 -7.95118,25.2697 -7.95118,32.66992 0.0787,1.65323 1.73093,5.11719 2.43946,5.11719 0.39363,0 1.18118,-0.78561 1.49609,-1.49414 4.72354,-11.10033 13.06989,-22.59603 20.54883,-28.18555 1.10216,-0.86599 2.7554,-1.88867 3.07031,-1.88867 0.0787,0 0.31445,0.23573 0.31445,0.31445 -5.11716,10.31307 -8.89648,20.23244 -8.89648,23.30274 0,2.4405 2.12636,4.96093 4.25195,4.96093 1.65324,0 7.63477,-2.83384 7.63477,-3.62109 0,-0.23618 -0.0784,-0.47252 -0.55078,-1.25977 -0.23618,0 -1.1794,0.62891 -2.75391,0.62891 -1.02344,0 -1.25976,-0.31445 -1.25976,-1.33789 0,-4.25118 8.26519,-18.89515 14.7207,-25.98047 -2.36177,-2.99157 -5.82468,-4.95898 -8.58008,-4.95898 -4.80227,0 -12.43934,6.53355 -22.4375,19.2871 1.88941,-7.55767 4.33069,-13.38328 8.3457,-21.25585 3.70011,-7.24276 10.2329,-15.82349 18.10547,-23.85352 -1.81069,-1.96814 -6.61149,-3.7793 -9.91797,-3.7793 z m -365.14648,6.61328 c -2.51923,11.57268 -3.77916,16.45316 -7.63672,27.71094 -5.90442,17.24092 -10.3125,25.74521 -12.35937,30.46875 2.04687,3.46393 4.64408,6.06176 7.00586,6.92774 10.23434,-1.65324 15.11585,-2.12696 20.15429,-2.12696 2.1256,0 4.01548,0.0783 5.82617,0.31446 0.23617,-0.78725 0.39258,-1.57287 0.39258,-2.51758 0,-2.04687 -0.62845,-4.25212 -1.96679,-6.53516 -4.64481,0.3149 -7.0867,0.70899 -11.33789,1.73242 -4.80228,1.18089 -6.61345,1.4949 -9.91993,1.65235 0.0787,-3.0703 4.56612,-13.0684 9.21094,-25.34961 4.80227,-12.51739 8.97627,-22.43661 10.55078,-25.11328 -2.83412,-4.17246 -5.74746,-6.29809 -9.91992,-7.16407 z m 170.23242,0.63086 c -18.50054,0 -35.11133,20.54605 -35.11133,42.66797 0,13.93445 6.92688,21.33609 19.83789,21.57227 5.27463,-2.51923 12.59693,-9.4485 18.58008,-17.47852 -0.0787,-0.47235 -0.47296,-1.17998 -0.94531,-1.65234 -8.10875,7.55767 -15.43061,12.51758 -19.91797,13.54101 -4.01501,-0.86598 -6.61328,-5.82589 -6.61328,-13.54101 0,-10.94287 3.62187,-21.64998 10.94336,-32.19922 4.25119,-6.1406 10.15537,-10.23437 14.87891,-10.23437 2.7554,0 4.33007,1.26052 4.33007,3.46484 0,2.7554 -2.28231,6.29749 -5.98242,9.28906 0.47235,2.7554 2.75497,5.03801 5.43164,5.43164 3.54266,-2.99158 6.0625,-8.10743 6.0625,-12.20117 0,-5.43207 -4.3301,-8.66016 -11.49414,-8.66016 z m -96.38086,4.33008 c -1.33833,3.3852 -2.4414,8.5018 -2.4414,10.3125 0,0.86598 0.39423,2.04658 0.94531,2.59766 -0.15745,0.62981 -0.23633,1.10306 -0.23633,1.41797 0,0.86598 1.10172,1.88882 2.36133,2.125 0.78726,-1.73197 6.53471,-8.73904 8.89648,-10.94336 -1.57451,-2.36177 -7.08489,-5.50977 -9.52539,-5.50977 z m 153.39453,15.98047 c -1.25961,1.25961 -2.20464,2.91288 -3.54296,6.14063 -3.77884,8.97473 -8.42383,23.9336 -9.44727,30.07421 0.70853,1.57451 4.56761,4.09254 6.45703,4.25 3.0703,-14.48553 6.45556,-20.07469 16.375,-26.92382 1.02343,3.0703 3.38462,5.82512 6.21875,7.24218 1.57451,-1.57451 3.14979,-3.70027 3.22852,-4.33007 -0.70853,-1.18089 -1.02344,-2.91227 -1.02344,-5.19532 0,-2.51922 0.4713,-4.95929 1.41601,-7.47851 -0.47236,-0.78726 -2.04717,-1.33789 -3.54296,-1.33789 -0.86598,0 -1.25872,0.0776 -1.65235,0.39257 -3.77883,5.66825 -8.02962,9.92055 -13.61914,14.95899 2.20432,-6.69168 4.17174,-10.70719 7.00586,-14.01367 -1.25961,-1.49579 -4.9602,-3.30695 -7.87305,-3.7793 z m 52.14454,0.1582 c -1.96814,7.47894 -5.43195,14.56266 -7.95118,18.89258 -3.7001,6.1406 -9.13282,12.98979 -12.20312,15.35156 -0.15745,0 -0.23633,4.6e-4 -0.23633,-0.31445 1.73197,-5.58952 1.96755,-10.78518 2.125,-17.94922 0.15745,-7.08531 0.31566,-8.42279 1.18164,-11.88672 -0.86598,-0.78725 -2.99249,-1.10351 -4.48828,-1.10351 -4.80227,0 -5.66797,2.91392 -5.66797,6.77148 0,1.88942 0.23633,5.82513 0.23633,9.28906 0,11.88758 -2.83399,14.9587 -2.83399,17.55665 0,1.88941 1.65281,3.77734 4.40821,4.80078 7.08531,-4.32992 11.65295,-8.65807 16.6914,-14.5625 4.95972,-5.66825 13.22551,-16.06043 13.61914,-25.03516 -0.6298,-0.70853 -3.54252,-1.81055 -4.88085,-1.81055 z M 363.62998,660.23 c -6.61296,4.80227 -12.20237,18.10729 -14.09179,26.05859 -0.47236,2.20432 -0.62891,3.77856 -0.62891,6.69141 0.86599,3.70011 5.27361,5.98316 8.58008,6.14062 0.70854,-0.0787 2.04642,-1.02434 3.38476,-2.4414 1.73197,-2.04687 7.4016,-10.15491 8.26758,-10.07618 -0.23618,0.70853 -0.39453,1.65311 -0.39453,2.83399 0,1.8107 0.55139,4.72371 2.51953,6.37695 2.4405,1.65324 6.06146,3.07031 7.47852,3.07031 0,0 0.31445,-0.0783 0.31445,-0.31445 0,-1.02344 -1.73047,-2.75677 -1.73047,-7.24414 0,-8.2662 6.06041,-17.08207 9.91797,-26.29297 -0.94471,-1.18089 -4.72311,-2.51953 -7.47851,-2.51953 -3.54266,3.3852 -5.19592,7.95088 -6.14063,10.54883 -1.73196,4.64482 -5.58924,9.44652 -7.71484,12.35937 -4.32991,5.90443 -6.45478,8.50301 -8.0293,9.13282 -0.15745,-0.15746 -0.55078,-0.63071 -0.55078,-1.41797 0,-2.7554 2.28126,-9.91948 3.30469,-12.28125 4.72354,-11.17905 9.05529,-17.16212 10,-18.18555 -1.57452,-1.81069 -5.19713,-2.43945 -7.00782,-2.43945 z m 367.49024,0.0781 c -2.4405,0 -5.27329,1.10293 -8.10742,3.22852 -7.40022,5.43207 -12.83399,15.58807 -12.83399,24.01172 0,7.08531 3.85865,12.12215 9.8418,12.75195 12.59612,-2.67667 21.64844,-13.93289 21.64844,-27.08008 0,-5.03844 -1.33776,-7.40039 -4.17188,-7.40039 -0.47236,0 -0.94366,0.0781 -1.41601,0.0781 -1.57452,-2.7554 -3.3077,-4.72387 -4.96094,-5.58985 z m -313.1211,0.31446 c -2.67667,0 -5.27524,1.02388 -7.08593,2.75585 -0.0787,0.23618 -0.0781,0.55139 -0.0781,1.4961 0,2.7554 1.18061,5.1166 3.6211,7.24219 2.28305,-1.88942 4.5664,-2.67579 7.63671,-2.67579 1.57451,0 4.0158,0.39319 8.34571,1.33789 -13.69827,9.84073 -26.37305,22.20014 -26.37305,25.66407 h -0.002 c 0.15745,1.65324 1.1812,3.15009 2.51953,3.70117 1.57452,-2.36177 3.62139,-3.54297 6.14062,-3.54297 3.93628,0 9.68467,2.67578 15.43164,2.67578 2.91286,0 5.50933,-0.78546 7.8711,-2.28125 0.0787,-0.70853 0.1582,-1.18149 0.1582,-1.96875 0,-2.91285 -1.33745,-5.43194 -3.69922,-6.92773 -2.7554,2.36177 -8.34617,4.09375 -13.14844,4.09375 -1.88941,0 -3.38416,-0.23663 -4.48632,-0.70899 5.98315,-8.2662 18.7353,-19.28741 25.26953,-21.80664 0,-2.04686 -0.94396,-4.72311 -1.88867,-5.43164 -0.9447,0.47235 -2.59706,0.86524 -3.69922,0.86524 -4.01501,0 -10.62878,-4.48828 -16.53321,-4.48828 z m 111.11719,0.86718 c -8.50238,0.47236 -19.83789,16.53159 -19.83789,28.26172 0,5.43207 2.67564,9.36794 6.5332,9.52539 4.88099,-0.78726 11.80936,-8.65913 16.06055,-18.26367 -1.96814,5.11718 -2.99219,9.3684 -2.99219,12.28125 0,3.93629 1.41783,5.82617 4.25196,5.82617 1.57451,0 3.85757,-0.63071 5.11718,-1.41797 -1.41706,-0.78725 -2.04687,-2.83324 -2.04687,-5.74609 0,-5.35335 2.91287,-14.64366 7.16406,-23.46094 0.0787,-1.02344 -3.62185,-2.75586 -5.82617,-2.75586 -2.28305,4.72354 -5.4324,10.62802 -7.63672,14.32813 -5.66825,9.44708 -9.44728,13.85652 -12.51758,14.48633 -0.70853,-0.23618 -1.10156,-0.78652 -1.10156,-1.88868 0,-9.68326 10.31268,-23.61869 18.73633,-24.95703 -0.23618,-1.96814 -3.77871,-5.66767 -5.9043,-6.21875 z m 103.94336,0 c -8.50237,0.47236 -19.83984,16.53159 -19.83984,28.26172 0,5.43207 2.67759,9.36794 6.53515,9.52539 4.88099,-0.78726 11.80742,-8.65913 16.0586,-18.26367 -1.96814,5.11718 -2.99024,9.3684 -2.99024,12.28125 0,3.93629 1.41588,5.82617 4.25,5.82617 1.57452,0 3.85757,-0.63071 5.11719,-1.41797 -1.41707,-0.78725 -2.04687,-2.83324 -2.04687,-5.74609 0,-5.35335 2.91287,-14.64366 7.16406,-23.46094 0.0787,-1.02344 -3.6199,-2.75586 -5.82422,-2.75586 -2.28304,4.72354 -5.4324,10.62802 -7.63672,14.32813 -5.66825,9.44708 -9.44727,13.85652 -12.51758,14.48633 -0.70853,-0.23618 -1.10156,-0.78652 -1.10156,-1.88868 0,-9.68326 10.31268,-23.61869 18.73633,-24.95703 -0.23618,-1.96814 -3.7787,-5.66767 -5.9043,-6.21875 z m -234.53125,3.22656 c -4.72354,2.36178 -7.00615,10.55079 -7.47851,12.59766 -2.04687,9.44708 -2.67774,13.14634 -2.67774,14.95703 0,4.64482 4.9608,6.69141 5.74805,6.69141 0.47236,0 0.4707,-0.70825 0.4707,-2.59766 0.0787,-2.28305 1.26112,-5.66723 2.36328,-8.58008 2.67667,-6.92787 4.09227,-12.51774 8.89453,-17.87109 -2.04686,-3.0703 -5.58834,-4.80363 -7.32031,-5.19727 z m 336.37109,2.67774 c 0.70853,1.10216 1.02344,2.59677 1.02344,5.27344 0,12.28121 -6.84843,22.35938 -16.21679,24.40625 -1.02343,-0.31491 -2.04688,-3.07062 -2.04688,-5.58985 0,-4.17246 2.75557,-11.17821 6.37695,-15.98047 2.59795,-3.38521 6.29719,-6.77103 10.86328,-8.10937 z m -64.14257,39.83398 c -3.1486,0 -5.63066,0.94332 -7.44532,2.83008 -1.80263,1.88676 -2.70507,4.47671 -2.70507,7.76953 0,3.24475 0.89688,5.82358 2.6875,7.73438 1.79062,1.91079 4.20564,2.86523 7.24609,2.86523 1.11763,0 2.16886,-0.1079 3.1543,-0.32422 0.99746,-0.21632 1.95941,-0.54002 2.88476,-0.97265 v -3.06446 c -0.93737,0.51676 -1.88069,0.90749 -2.83008,1.17188 -0.93737,0.25237 -1.8882,0.37891 -2.84961,0.37891 -2.15114,0 -3.82001,-0.67913 -5.00976,-2.03711 -1.18974,-1.37001 -1.78516,-3.28836 -1.78516,-5.75196 0,-2.4636 0.59542,-4.37443 1.78516,-5.73242 1.18975,-1.37 2.85862,-2.05469 5.00976,-2.05469 0.96141,0 1.91224,0.1321 2.84961,0.39649 0.94939,0.25236 1.89271,0.63754 2.83008,1.15429 v -3.10156 c -0.91333,-0.42061 -1.85665,-0.73124 -2.83008,-0.93554 -0.97342,-0.21632 -1.97068,-0.32618 -2.99218,-0.32618 z m 19.44922,0 c -2.89624,0 -5.16805,0.93776 -6.81446,2.8125 -1.63439,1.87474 -2.45117,4.47026 -2.45117,7.78711 0,3.30484 0.81678,5.90231 2.45117,7.78907 1.64641,1.87474 3.91822,2.81054 6.81446,2.81054 2.88422,0 5.15046,-0.9358 6.79687,-2.81054 1.64641,-1.88676 2.46875,-4.48423 2.46875,-7.78907 0,-3.31685 -0.82234,-5.91237 -2.46875,-7.78711 -1.64641,-1.87474 -3.91265,-2.8125 -6.79687,-2.8125 z m 24.44335,0 c -1.45412,0 -2.71003,0.2959 -3.76757,0.88477 -1.05755,0.58886 -1.9636,1.50243 -2.72071,2.74023 v -3.13672 h -3.33593 v 20.18946 h 3.33593 v -11.41209 c 0,-1.95887 0.49864,-3.50872 1.4961,-4.65039 0.99745,-1.15369 2.34263,-1.73047 4.03711,-1.73047 1.43009,0 2.48883,0.46888 3.17383,1.40625 0.685,0.92535 1.02734,2.36175 1.02734,4.30859 v 12.07813 h 3.33398 v -11.41211 c 0,-1.97089 0.49864,-3.5263 1.4961,-4.66797 0.99746,-1.14167 2.3557,-1.71289 4.07422,-1.71289 1.40606,0 2.45171,0.46888 3.13671,1.40625 0.685,0.93737 1.02735,2.37377 1.02735,4.30859 v 12.07813 h 3.33594 v -12.18555 c 0,-2.71597 -0.57122,-4.8073 -1.7129,-6.27344 -1.14166,-1.47816 -2.76411,-2.21875 -4.86718,-2.21875 -1.56229,0 -2.92053,0.35542 -4.07422,1.06446 -1.15369,0.70904 -2.1454,1.80865 -2.97461,3.29882 -0.49272,-1.41807 -1.25555,-2.49905 -2.28906,-3.24414 -1.0215,-0.74509 -2.26628,-1.11914 -3.73243,-1.11914 z m -24.44335,2.8125 c 1.76658,0 3.16765,0.70333 4.20117,2.10938 1.03351,1.39404 1.54883,3.28623 1.54883,5.67773 0,2.40352 -0.51532,4.30323 -1.54883,5.69727 -1.03352,1.39404 -2.43459,2.0918 -4.20117,2.0918 -1.79062,0 -3.20282,-0.6922 -4.23633,-2.07422 -1.0215,-1.39404 -1.53125,-3.29931 -1.53125,-5.71485 0,-2.41553 0.51727,-4.31329 1.55078,-5.69531 1.03351,-1.39404 2.4382,-2.0918 4.2168,-2.0918 z m -36.21289,14.17188 c -1.14446,0 -2.10547,0.92391 -2.10547,2.06836 0,1.14446 0.9239,2.10351 2.06836,2.10351 1.14446,0 2.0664,-0.95905 2.0664,-2.10351 0,-1.10754 -0.95868,-2.06836 -2.02929,-2.06836 z"
         style="font-style:normal;font-variant:normal;font-weight:normal;font-stretch:normal;font-size:78.7257px;line-height:1.25;font-family:'Kaushan Script';-inkscape-font-specification:'Kaushan Script';letter-spacing:0px;word-spacing:0px;fill:none;fill-opacity:1;stroke:#ffffff;stroke-width:10;stroke-miterlimit:4;stroke-dasharray:none;stroke-opacity:1;paint-order:stroke markers fill"
         id="path126" />
      <g
         transform="translate(9.145727,1.7048881)"
         id="g110">
        <text
           id="text32"
           y="695.84015"
           x="296.02158"
           style="font-style:normal;font-variant:normal;font-weight:normal;font-stretch:normal;line-height:0%;font-family:'Standard Symbols L';-inkscape-font-specification:'Standard Symbols L';letter-spacing:0px;word-spacing:0px;fill:#000000;fill-opacity:1;stroke:none"
           xml:space="preserve"><tspan
             style="font-style:normal;font-variant:normal;font-weight:normal;font-stretch:normal;font-size:78.7257px;line-height:1.25;font-family:'Kaushan Script';-inkscape-font-specification:'Kaushan Script';fill:#63c7db;fill-opacity:1"
             y="695.84015"
             x="296.02158"
             id="tspan30"
             sodipodi:role="line">Luiz Carvalho</tspan></text>
        <text
           id="text36"
           y="726.19952"
           x="639.89447"
           style="font-style:normal;font-variant:normal;font-weight:normal;font-stretch:normal;line-height:0%;font-family:'Standard Symbols L';-inkscape-font-specification:'Standard Symbols L';letter-spacing:0px;word-spacing:0px;fill:#999999;fill-opacity:1;stroke:none"
           xml:space="preserve"><tspan
             style="font-size:36.918px;line-height:1.25;fill:#999999;fill-opacity:1"
             y="726.19952"
             x="639.89447"
             id="tspan34"
             sodipodi:role="line">.com</tspan></text>
      </g>
    </g>
  </g>
</svg>
